# xmcd
#
# Track frame offsets:
#	150
#	3283
#	26020
#	47288
#	67296
#	86148
#	104851
#	123938
#	146736
#	166897
#	184381
#	199548
#	214415
#	232710
#	246082
#
# Disc length: 3527 seconds
#
# Revision: 1
# Processed by: cddbd v1.5.2PL0 Copyright (c) Steve Scherf et al.
# Submitted via: audiograbber 1.83.01
#
DISCID=d40dc50f
DTITLE=Buju Banton - Unchained Spirit
DYEAR=1900
DGENRE=
TTITLE0=Intro
TTITLE1=Voice Of Jah (Featuring Lms)
TTITLE2=Sudan
TTITLE3=We'll Be Alright (Featuring Lu
TTITLE4=Pull It Up (Featuring Beres Ha
TTITLE5=Life Is A Journey
TTITLE6=Better Must Come
TTITLE7=Mighty Dread
TTITLE8=Poor Old Man (Featuring Stephe
TTITLE9=Law And Order
TTITLE10=Guns And Bombs
TTITLE11=Woman Dem Phat
TTITLE12=No More Misty Days (Featuring
TTITLE13=Pull It Up (Live In Concert) (
TTITLE14=Reunion (Featuring Wayne Wonde
EXTD=
EXTT0=
EXTT1=
EXTT2=
EXTT3=
EXTT4=
EXTT5=
EXTT6=
EXTT7=
EXTT8=
EXTT9=
EXTT10=
EXTT11=
EXTT12=
EXTT13=
EXTT14=
PLAYORDER=
